<svg xmlns="http://www.w3.org/2000/svg" width="14.862" height="15" viewBox="0 0 14.862 15">
  <path id="Union_9" data-name="Union 9" d="M-5877.123-442.6v-.5h.98v-3.678h-1.478v.18c0,1.218,0,2.441,0,3.659a.32.32,0,0,1-.186.333h-1.62a.366.366,0,0,1-.178-.356q.006-1.58,0-3.161v-.165h-2.219c0,.05-.007.088-.007.126v3.437a1.02,1.02,0,0,0,.012.115h-.5c0-1.176,0-2.352,0-3.529,0-.061,0-.119-.031-.146a4.834,4.834,0,0,1-.582-.376,1.133,1.133,0,0,1-.378-.9c0-1.207-.008-2.41,0-3.617a1.22,1.22,0,0,1,.949-1.222.267.267,0,0,0,.069-.027,1.731,1.731,0,0,1,.169-2.617,1.747,1.747,0,0,1,2.393.3,1.727,1.727,0,0,1-.394,2.517c.023.023.046.046.07.065a1.189,1.189,0,0,1,.455.943c0,.517,0,1.034,0,1.552v.169h1v-.364c0-.3,0-.594,0-.893a1.728,1.728,0,0,1,1.366-1.64c.043-.012.085-.019.147-.034a1.725,1.725,0,0,1-.494-1.559,1.646,1.646,0,0,1,.629-1.027,1.743,1.743,0,0,1,2.3.134,1.718,1.718,0,0,1,.016,2.421,5.473,5.473,0,0,1,.7.322,1.608,1.608,0,0,1,.771,1.356c.016.421,0,.847,0,1.284h1v-.149c0-.456.011-.916,0-1.376a1.309,1.309,0,0,1,.54-1.2,1.714,1.714,0,0,1-.783-1.437,1.644,1.644,0,0,1,.448-1.161,1.746,1.746,0,0,1,2.373-.184,1.726,1.726,0,0,1,.146,2.556,4.475,4.475,0,0,1,.579.345,1.14,1.14,0,0,1,.413.935c0,1.207,0,2.41-.008,3.617a1.219,1.219,0,0,1-.9,1.215c-.027.008-.054.019-.093.034v3.7h-.5a.551.551,0,0,0,.012-.084v-3.5a.864.864,0,0,0-.012-.1h-2.21v.18c0,1.05,0,2.1,0,3.146a.364.364,0,0,1-.178.356h-1.621a.321.321,0,0,1-.186-.333c0-1.218,0-2.441,0-3.659v-.18h-1.478v3.682h.98v.494Zm-2.338-4.184c.278,0,.358.081.358.36v3.322h.981c0-.046.007-.084.007-.123,0-1.245,0-2.49,0-3.736a.742.742,0,0,0-.822-.8h-2.018c-.3,0-.378-.077-.378-.372v-2.169c0-.05,0-.1.008-.161h.494v2.2h3.453v-.728h-2.354c-.29,0-.366-.077-.366-.368,0-.575-.016-1.153,0-1.728a.781.781,0,0,0-.86-.862c-.339.019-.679,0-1.019,0a.76.76,0,0,0-.845.843c0,1.157.011,2.314,0,3.471a.8.8,0,0,0,.857.854c.322-.007.644-.01.965-.01C-5880.489-446.79-5879.976-446.784-5879.461-446.784Zm6.641-.981a1.121,1.121,0,0,0-.278.023.732.732,0,0,0-.56.789v3.7c0,.046,0,.088.007.138h.98v-3.3c0-.306.073-.375.386-.375.845,0,1.69,0,2.535,0a.734.734,0,0,0,.795-.785q.006-1.787,0-3.571a.747.747,0,0,0-.8-.8h-1.092a.748.748,0,0,0-.83.824v1.77c0,.276-.085.356-.363.356h-2.2c-.051,0-.1,0-.155.008v.72h3.462v-2.2h.49v2.341c0,.276-.085.356-.363.356l-1.344,0Zm-4.8.494h1.617c.582,0,1.169,0,1.751,0a.185.185,0,0,0,.139-.057c.07-.134.12-.276.178-.418h-3.894C-5877.763-447.585-5877.693-447.431-5877.624-447.271Zm.475-2.211a.248.248,0,0,1,.278.268c0,.13,0,.264,0,.395v.556h1.983v-.889c0-.253.081-.333.336-.333h.884a.252.252,0,0,0,.015-.065c0-.387.016-.774,0-1.157a1.22,1.22,0,0,0-1.146-1.23c-.127-.015-.193.011-.224.138a1.77,1.77,0,0,1-.089.249c-.173.456-.343.912-.517,1.368-.073.2-.243.268-.378.165a.524.524,0,0,1-.135-.2c-.208-.536-.409-1.077-.618-1.613a.174.174,0,0,0-.124-.1,1.2,1.2,0,0,0-1.153.839,7.256,7.256,0,0,0-.07,1.617h.166l.529,0Zm1.266-1.448c.136-.36.255-.678.382-1.012h-.768C-5876.143-451.612-5876.019-451.29-5875.884-450.93Zm3.959-2.732a1.243,1.243,0,0,0,1.231,1.222,1.233,1.233,0,0,0,1.243-1.222,1.243,1.243,0,0,0-1.235-1.234A1.252,1.252,0,0,0-5871.925-453.661Zm-5.2-.008a1.241,1.241,0,0,0,1.239,1.23,1.241,1.241,0,0,0,1.239-1.23,1.249,1.249,0,0,0-1.231-1.226h-.02A1.25,1.25,0,0,0-5877.123-453.669Zm-5.2,0a1.232,1.232,0,0,0,1.239,1.226,1.241,1.241,0,0,0,1.235-1.234,1.252,1.252,0,0,0-1.235-1.222h-.007A1.241,1.241,0,0,0-5882.32-453.665Zm6.2,4.667v-.475h.471V-449Zm-3.342-6.172a.279.279,0,0,1-.139-.283v-.421h-.864c-.3,0-.375-.077-.375-.375v-1.023c0-.241.089-.326.332-.326h3.3c.247,0,.332.08.332.322v1.084c0,.23-.092.318-.323.318-.138,0-.274,0-.41,0-.183,0-.365,0-.548,0a.431.431,0,0,0-.223.077c-.263.18-.514.375-.769.567a.346.346,0,0,1-.2.084A.243.243,0,0,1-5879.461-455.171Zm.073-1.2a.257.257,0,0,1,.285.28c0,.057,0,.119,0,.207a2.579,2.579,0,0,0,.248-.188,1.069,1.069,0,0,1,.922-.307,4.452,4.452,0,0,0,.555,0v-.724h-2.956v.728l.636,0Zm5.742-.012v-.475h.475v.475Zm-.991,0v-.475h.475v.475Zm1.975,0v-.471h.483v.471Z" transform="translate(5883.316 457.6)"/>
</svg>
