<svg xmlns="http://www.w3.org/2000/svg" width="16.963" height="15" viewBox="0 0 16.963 15">
  <g id="GYM" transform="translate(-52 -79.256)">
    <path id="Union_3" data-name="Union 3" d="M7.666,14.759c-.416-.208-.832-.407-1.261-.584a2.215,2.215,0,0,1-1.359-1.784c-.044-.248-.053-.5-.084-.819.066-.328.133-.7.217-1.08.027-.115.018-.173-.093-.23-.341-.177-.673-.381-1.018-.549a.687.687,0,0,1-.416-.766,1.188,1.188,0,0,1,.531-.894.554.554,0,0,1,.624-.027c.376.217.766.416,1.142.633a.18.18,0,0,0,.274-.044A3.31,3.31,0,0,1,7.71,7.606a2.033,2.033,0,0,1,1.576.1c.443.212.885.425,1.337.615a2.193,2.193,0,0,1,1.337,1.762,4.587,4.587,0,0,1-2.111,4.568A2.422,2.422,0,0,1,8.64,15,2.157,2.157,0,0,1,7.666,14.759Zm2.187-6a1.939,1.939,0,0,0-.952.345,3.972,3.972,0,0,0-1.744,3.926,1.523,1.523,0,0,0,2.4,1.164,3.986,3.986,0,0,0,1.939-3.249,2.891,2.891,0,0,0-.239-1.359A1.41,1.41,0,0,0,10,8.753,1.327,1.327,0,0,0,9.853,8.761Zm-1.5-.739A2.028,2.028,0,0,0,7.1,8.509,4.07,4.07,0,0,0,5.537,12.2,1.7,1.7,0,0,0,6.8,13.749a4.138,4.138,0,0,1,.208-3.191,4.131,4.131,0,0,1,2.31-2.24,2.018,2.018,0,0,0-.934-.3ZM4.3,8.651c-.128.186-.168.456-.075.536.009.013.027.018.04.027.372.2.744.407,1.129.615.128-.23.248-.443.372-.668-.381-.208-.757-.416-1.133-.62A.292.292,0,0,0,4.5,8.5C4.431,8.5,4.376,8.543,4.3,8.651ZM2.85,12.107c-.544-.243-1.084-.491-1.62-.752A2.2,2.2,0,0,1,.066,9.673C.044,9.554.022,9.434,0,9.319V8.69c.053-.279.093-.567.168-.841A4.487,4.487,0,0,1,2.16,5.127a2.171,2.171,0,0,1,2.12-.155c.5.217.987.438,1.469.682A2.228,2.228,0,0,1,7.015,7.491a.262.262,0,0,1-.235.305.254.254,0,0,1-.288-.248,1.8,1.8,0,0,0-.5-1.089,1.4,1.4,0,0,0-1.527-.336,3,3,0,0,0-1.43,1.084,4.281,4.281,0,0,0-.783,1.629c-.009.044-.018.084-.031.128a.275.275,0,0,1-.336.217A.268.268,0,0,1,1.7,8.841a5.062,5.062,0,0,1,.77-1.779A3.921,3.921,0,0,1,4.24,5.667a1.13,1.13,0,0,0,.106-.049,1.72,1.72,0,0,0-1.908-.04A4.048,4.048,0,0,0,.73,7.805,3.7,3.7,0,0,0,.6,9.717a1.713,1.713,0,0,0,1.2,1.319l-.2-1A1,1,0,0,1,1.6,9.81a.257.257,0,0,1,.266-.261.264.264,0,0,1,.261.261,5.127,5.127,0,0,0,.137.828,1.457,1.457,0,0,0,2.089.956.426.426,0,0,1,.208-.04.237.237,0,0,1,.212.221.259.259,0,0,1-.173.288,2.464,2.464,0,0,1-.96.213A1.921,1.921,0,0,1,2.85,12.107Zm9.662-.04c-.213,0-.332-.093-.336-.257s.119-.27.341-.27c.536,0,1.071,0,1.607,0a.472.472,0,0,0,.23-.062A3.611,3.611,0,0,0,13.1,4.88,3.579,3.579,0,0,0,9.113,6.973a.91.91,0,0,1-.084.159.262.262,0,0,1-.443-.274c.124-.257.261-.513.407-.757a.242.242,0,0,0,.022-.266c-.279-.593-.558-1.186-.828-1.784A2.843,2.843,0,0,1,10.207.059,2.958,2.958,0,0,1,10.8.006c.549-.009,1.1,0,1.655,0s1.1,0,1.655,0a2.84,2.84,0,0,1,2.6,4.006c-.274.62-.567,1.235-.854,1.846a.255.255,0,0,0,.022.283,4.134,4.134,0,0,1-1.35,5.847.646.646,0,0,1-.3.08c-.286,0-.572.006-.859.006ZM14.226,1.2a1.632,1.632,0,0,1,1.514,1.89A4.674,4.674,0,0,1,15.4,4c-.155.372-.332.73-.5,1.093.177.15.341.3.522.456.3-.66.633-1.292.872-1.956A2.288,2.288,0,0,0,14.164.538C13.008.52,11.858.52,10.7.538A2.307,2.307,0,0,0,8.618,3.707c.248.6.54,1.182.814,1.77a.2.2,0,0,0,.031.031l.5-.438q-.352-.744-.691-1.487A1.651,1.651,0,0,1,10.8,1.206c.695,0,1.39,0,2.085,0a1,1,0,0,1,.115,0,.239.239,0,0,1,.243.226.242.242,0,0,1-.195.283.817.817,0,0,1-.181.013c-.673,0-1.346.027-2.018,0A1.143,1.143,0,0,0,9.782,3.41c.208.407.385.828.58,1.244l.071.128a4.166,4.166,0,0,1,2.01-.5,4.254,4.254,0,0,1,2.009.527c.243-.54.5-1.049.713-1.58a1.106,1.106,0,0,0-1.018-1.5c-.051,0-.1,0-.155,0-.07,0-.139,0-.208,0a.263.263,0,0,1-.266-.279A.26.26,0,0,1,13.8,1.2c.071,0,.143,0,.215,0S14.155,1.2,14.226,1.2Zm-1.943,9.051a.334.334,0,0,1-.057-.266c.022-.12.128-.168.252-.173a1.363,1.363,0,0,0,1.071-.571A1.394,1.394,0,1,0,11.2,7.757c-.022.04-.04.08-.062.12a.263.263,0,0,1-.474-.23,1.867,1.867,0,0,1,1.31-1.093,1.923,1.923,0,1,1,.611,3.784h-.035A.429.429,0,0,1,12.282,10.253Z" transform="translate(52 79.256)"/>
  </g>
</svg>
