<svg xmlns="http://www.w3.org/2000/svg" width="15.008" height="15" viewBox="0 0 15.008 15">
  <path id="Path_212" data-name="Path 212" d="M72.86,65.24a.348.348,0,0,1,.023-.059.75.75,0,1,0-1.234-.854c-.215.278-.431.556-.65.83a.267.267,0,0,1-.176.09c-.854.008-1.711,0-2.565,0a.569.569,0,0,1-.11-.016.31.31,0,0,0,.023-.039c.627-.627,1.249-1.253,1.876-1.876a.216.216,0,0,1,.153-.047q.546.059,1.093.129a.752.752,0,0,0,.862-.631.763.763,0,0,0-.6-.846c-.023,0-.047-.016-.086-.027.047-.047.078-.082.114-.117a.755.755,0,0,0,.031-1.077.773.773,0,0,0-1.093.012c-.039.039-.078.074-.129.121-.008-.043-.012-.055-.016-.07a.749.749,0,1,0-1.476.251c.043.349.082.7.129,1.046a.257.257,0,0,1-.082.231c-.591.584-1.175,1.175-1.762,1.762-.031.031-.067.063-.117.11,0-.051-.008-.078-.008-.106,0-.866,0-1.731,0-2.593a.252.252,0,0,1,.086-.164c.3-.239.6-.466.9-.709a.741.741,0,0,0,.129-.995.755.755,0,0,0-.987-.227c-.035.02-.074.039-.129.07a.961.961,0,0,0-.161-.654.75.75,0,0,0-1.069-.125.882.882,0,0,0-.282.775c-.035-.016-.051-.02-.07-.027a.749.749,0,0,0-1.05.192.756.756,0,0,0,.2,1.05c.27.211.537.423.811.627a.26.26,0,0,1,.114.231c0,.83,0,1.661,0,2.491,0,.047,0,.094-.008.149-.023-.016-.039-.02-.047-.027-.627-.627-1.253-1.249-1.876-1.876a.218.218,0,0,1-.043-.157c.039-.368.086-.736.133-1.1a.748.748,0,0,0-1.457-.317c-.016.047-.027.1-.043.149-.529-.392-.869-.443-1.175-.149a.929.929,0,0,0-.235.407.811.811,0,0,0,.341.822l-.063.02a.751.751,0,1,0,.251,1.48c.349-.043.7-.082,1.046-.129a.237.237,0,0,1,.219.078q.887.893,1.782,1.782c.027.027.055.063.09.1-.039,0-.055.012-.074.012-.873,0-1.751,0-2.624,0a.267.267,0,0,1-.164-.09c-.235-.294-.462-.6-.7-.885a.74.74,0,0,0-1-.133.755.755,0,0,0-.219.991c.02.035.039.071.051.094a3.823,3.823,0,0,0-.505.114.772.772,0,0,0-.427.525v.294a.777.777,0,0,0,.454.537,3.558,3.558,0,0,0,.478.094c-.012.023-.027.055-.047.086a.754.754,0,0,0,.211,1,.745.745,0,0,0,1.014-.145c.239-.294.462-.6.7-.885a.247.247,0,0,1,.153-.082c.873,0,1.751,0,2.624,0a.465.465,0,0,1,.078.012c-.039.047-.071.082-.1.114-.591.591-1.183,1.179-1.77,1.774a.221.221,0,0,1-.215.078c-.349-.047-.7-.086-1.046-.129a.75.75,0,1,0-.243,1.48.342.342,0,0,1,.051.02.8.8,0,0,0-.341.834.856.856,0,0,0,.243.4c.309.286.65.231,1.167-.161.008.039.016.074.024.11A.753.753,0,0,0,63.707,71c-.047-.364-.09-.725-.129-1.089a.245.245,0,0,1,.047-.168c.619-.627,1.242-1.245,1.86-1.868.008-.008.024-.016.051-.035,0,.051.012.09.012.129q0,1.269,0,2.534a.233.233,0,0,1-.106.2c-.274.208-.54.419-.811.627a.763.763,0,0,0-.211,1.05.755.755,0,0,0,1.061.192c.012-.008.027-.008.063-.023v.176a.747.747,0,0,0,.556.74c.02.008.031.02.051.027h.294c.016-.008.031-.02.051-.027a.747.747,0,0,0,.552-.7c0-.07.008-.141.012-.219.031.012.047.012.055.02a.751.751,0,0,0,1.054-.18.762.762,0,0,0-.2-1.061c-.27-.211-.537-.423-.811-.631a.225.225,0,0,1-.106-.2q.006-1.269,0-2.538c0-.039.008-.078.012-.129l.051.035c.623.623,1.245,1.241,1.864,1.868a.2.2,0,0,1,.047.153c-.039.372-.086.748-.133,1.12a.75.75,0,0,0,1.453.337c.02-.059.035-.117.051-.18.513.392.854.443,1.163.157a.924.924,0,0,0,.243-.4.81.81,0,0,0-.337-.834.157.157,0,0,1,.051-.016.751.751,0,1,0-.247-1.48c-.349.047-.7.09-1.046.125a.291.291,0,0,1-.2-.067c-.607-.6-1.206-1.2-1.805-1.8a1.041,1.041,0,0,1-.071-.09.249.249,0,0,1,.059-.012c.881,0,1.758,0,2.64,0a.229.229,0,0,1,.153.082c.235.294.462.6.7.885a.741.741,0,0,0,.834.235.717.717,0,0,0,.49-.709,2.341,2.341,0,0,0-.11-.454,3.446,3.446,0,0,0,.587-.2.606.606,0,0,0,.309-.568C73.78,65.443,73.4,65.236,72.86,65.24Zm.36.932A.323.323,0,0,1,73,66.25c-.211.012-.419,0-.631,0a.263.263,0,0,0-.27.137.269.269,0,0,0,.055.309c.1.125.2.251.3.38a.252.252,0,1,1-.4.309c-.258-.325-.513-.65-.764-.983a.358.358,0,0,0-.313-.153c-1.14,0-2.275,0-3.415,0a.273.273,0,0,0-.29.153.267.267,0,0,0,.094.313q1.216,1.21,2.424,2.424a.345.345,0,0,0,.317.106c.407-.055.815-.1,1.222-.153a.26.26,0,0,1,.321.2.254.254,0,0,1-.239.29c-.164.027-.329.043-.493.063a.254.254,0,0,0-.247.176.275.275,0,0,0,.09.29c.153.145.3.294.446.446.129.133.145.282.039.388s-.262.094-.4-.039c-.149-.149-.3-.294-.446-.446a.26.26,0,0,0-.29-.086.251.251,0,0,0-.164.239c-.02.168-.039.341-.067.509a.254.254,0,0,1-.282.235.257.257,0,0,1-.208-.317c.051-.4.1-.8.153-1.206a.385.385,0,0,0-.117-.356q-1.2-1.193-2.393-2.393c-.1-.1-.2-.164-.337-.106s-.149.176-.149.305c0,1.124,0,2.248,0,3.372a.4.4,0,0,0,.168.349c.329.247.65.5.971.756a.244.244,0,0,1,.082.325.229.229,0,0,1-.286.121.4.4,0,0,1-.137-.078,3.79,3.79,0,0,0-.384-.29.324.324,0,0,0-.266-.031.312.312,0,0,0-.141.227c-.02.235,0,.47-.008.7,0,.117-.047.223-.168.243a.354.354,0,0,1-.251-.059.343.343,0,0,1-.078-.223c-.012-.208,0-.419,0-.631a.263.263,0,0,0-.137-.27.269.269,0,0,0-.309.055c-.125.1-.251.2-.38.3a.255.255,0,0,1-.368-.024.252.252,0,0,1,.063-.372c.317-.251.634-.5.96-.744a.4.4,0,0,0,.176-.345c0-1.128,0-2.256,0-3.388,0-.219-.1-.341-.27-.313a.365.365,0,0,0-.188.1q-1.222,1.216-2.44,2.432a.333.333,0,0,0-.1.317c.055.407.1.815.153,1.222a.263.263,0,0,1-.2.321.255.255,0,0,1-.29-.243c-.027-.172-.031-.352-.074-.521a.247.247,0,0,0-.427-.145c-.168.141-.313.305-.47.462a.264.264,0,0,1-.388.039.257.257,0,0,1,.031-.388c.149-.153.3-.305.454-.454a.26.26,0,0,0,.082-.29.251.251,0,0,0-.239-.164c-.161-.016-.321-.035-.478-.059-.18-.027-.282-.145-.262-.29s.149-.227.329-.208c.4.051.8.1,1.206.153a.359.359,0,0,0,.329-.11q1.2-1.21,2.413-2.416a.273.273,0,0,0,.094-.325.278.278,0,0,0-.294-.149H63.3c-.556,0-1.112,0-1.672,0a.4.4,0,0,0-.349.168c-.247.329-.5.65-.756.971a.244.244,0,0,1-.325.082.229.229,0,0,1-.121-.286.4.4,0,0,1,.078-.137,3.8,3.8,0,0,0,.29-.384.324.324,0,0,0,.031-.266.32.32,0,0,0-.227-.141c-.235-.02-.47,0-.7-.008-.117,0-.223-.047-.243-.168a.35.35,0,0,1,.059-.251.343.343,0,0,1,.223-.078c.211-.012.419,0,.631,0a.263.263,0,0,0,.27-.137.269.269,0,0,0-.055-.309c-.1-.125-.2-.251-.3-.38a.255.255,0,0,1,.023-.368.252.252,0,0,1,.372.063c.255.321.509.646.756.971a.381.381,0,0,0,.337.164q1.692-.006,3.388,0c.129,0,.247-.02.3-.157a.288.288,0,0,0-.106-.325q-1.2-1.2-2.4-2.4a.378.378,0,0,0-.345-.114c-.407.055-.815.106-1.222.157a.256.256,0,0,1-.305-.2.251.251,0,0,1,.227-.286c.176-.031.36-.035.537-.078a.314.314,0,0,0,.208-.168.331.331,0,0,0-.07-.262c-.141-.168-.305-.313-.462-.47-.129-.133-.145-.282-.039-.388a.26.26,0,0,1,.388.031c.149.149.3.294.446.446a.277.277,0,0,0,.29.1.271.271,0,0,0,.184-.258c.02-.164.035-.329.063-.493a.254.254,0,0,1,.282-.235.261.261,0,0,1,.211.317c-.051.407-.1.815-.153,1.222a.373.373,0,0,0,.117.341q1.2,1.2,2.4,2.4a.26.26,0,0,0,.474-.2V61.315a.364.364,0,0,0-.157-.309c-.333-.251-.658-.509-.983-.764a.244.244,0,0,1-.082-.325.231.231,0,0,1,.282-.125.368.368,0,0,1,.137.078,3.792,3.792,0,0,0,.384.29.342.342,0,0,0,.266.035.312.312,0,0,0,.141-.227c.02-.235,0-.47.008-.7,0-.117.047-.227.168-.243a.373.373,0,0,1,.251.055.323.323,0,0,1,.078.223c.012.211,0,.419,0,.631a.258.258,0,0,0,.446.215c.125-.1.255-.2.38-.3a.259.259,0,0,1,.368.02.254.254,0,0,1-.059.372c-.325.258-.654.513-.983.764a.358.358,0,0,0-.153.313c0,1.14,0,2.275,0,3.415a.273.273,0,0,0,.153.29.267.267,0,0,0,.313-.094Q68.2,63.71,69.417,62.5a.348.348,0,0,0,.106-.317c-.055-.407-.1-.815-.153-1.222a.258.258,0,0,1,.2-.321.254.254,0,0,1,.29.239c.027.172.031.352.074.521a.246.246,0,0,0,.427.145c.157-.129.294-.286.439-.431s.305-.18.419-.07.094.262-.063.419c-.141.141-.282.286-.427.423a.254.254,0,0,0,.157.454c.168.02.341.039.509.067a.254.254,0,0,1,.235.282.258.258,0,0,1-.313.211c-.4-.051-.807-.1-1.206-.153a.385.385,0,0,0-.356.117q-1.2,1.2-2.4,2.4a.273.273,0,0,0-.094.325.278.278,0,0,0,.294.149h3.4a.372.372,0,0,0,.325-.157c.251-.333.509-.658.764-.983a.244.244,0,0,1,.325-.082.225.225,0,0,1,.121.282.4.4,0,0,1-.078.137,3.792,3.792,0,0,0-.29.384.342.342,0,0,0-.035.266.312.312,0,0,0,.227.141c.235.02.47,0,.7.008.117,0,.223.047.243.168A.279.279,0,0,1,73.22,66.172Z" transform="translate(-58.8 -58.495)"/>
</svg>
