<svg xmlns="http://www.w3.org/2000/svg" width="14.991" height="15" viewBox="0 0 14.991 15">
  <path id="Union_6" data-name="Union 6" d="M.614,15A.838.838,0,0,1,0,14.386V13.243a.946.946,0,0,1,.571-.618,6.8,6.8,0,0,0,1.51-1.1c.1-.086.2-.168.282-.258a.8.8,0,0,1,.986-.231,2.915,2.915,0,0,1,.117-.4c.18-.415.352-.837.567-1.233A3.664,3.664,0,0,0,4.5,7.55c-.008-.344,0-.685,0-1.049H4.355c-.861,0-1.722,0-2.579,0a.747.747,0,0,1-.1-1.491c.106-.008.211,0,.305,0,.07-.3.113-.595.2-.869A4.314,4.314,0,0,1,4.371,1.657a5.637,5.637,0,0,1,2.688-.65h.227A.749.749,0,0,1,7.6.127a.7.7,0,0,1,.814.008.737.737,0,0,1,.3.857c.262.012.516.012.771.039a5.1,5.1,0,0,1,3.764,2.011,3.624,3.624,0,0,1,.724,1.886A.5.5,0,0,0,13.989,5h.243a.749.749,0,1,1,.008,1.5c-.669.008-1.338,0-2.007,0-.16,0-.321.008-.481,0a.318.318,0,0,0-.3.137,4.076,4.076,0,0,0-.877,1.906,1.454,1.454,0,0,1-.587.939A14.339,14.339,0,0,0,7.916,11.4a2.34,2.34,0,0,1-.567.45,7.585,7.585,0,0,0-1.757,1.37c0,.016,0,.027,0,.035a.761.761,0,0,1-.211,1.115c-.141.113-.274.235-.423.337s-.317.2-.477.3Zm2.1-3.385a8.3,8.3,0,0,1-2.074,1.53.26.26,0,0,0-.149.262v.775c0,.231.09.317.321.317H2.528c.575,0,1.15,0,1.726,0a.5.5,0,0,0,.266-.09c.2-.141.376-.3.563-.446.215-.172.219-.3.024-.493L3.263,11.623c-.116-.116-.193-.174-.272-.174S2.836,11.5,2.716,11.615ZM5,6.72c0,.27-.008.54,0,.806a3.941,3.941,0,0,1-.54,2.125,5.54,5.54,0,0,0-.646,1.593.277.277,0,0,0,.09.305c.172.153.329.321.489.485.278.278.552.556.83.833.031-.027.055-.047.074-.067a7.872,7.872,0,0,1,1.878-1.428,1.341,1.341,0,0,0,.337-.274A14.578,14.578,0,0,1,9.72,9.056a.869.869,0,0,0,.356-.579,4.765,4.765,0,0,1,.759-1.855A.741.741,0,0,0,10.9,6.5a2.7,2.7,0,0,1-.36,0,.637.637,0,0,0-.607.274,1.488,1.488,0,0,0-.168.219c-.157.286-.3.579-.458.865a1.579,1.579,0,0,1-.286.434C8.464,8.794,7.908,9.3,7.325,9.772A1.028,1.028,0,0,1,5.682,9.2a2.369,2.369,0,0,1,.012-.724A4.934,4.934,0,0,0,5.65,6.9a.483.483,0,0,0-.383-.4.4.4,0,0,0-.092-.012C5.056,6.493,5,6.568,5,6.72Zm1.24.9c0,.4-.043.79-.082,1.182a.574.574,0,0,0,.266.614A.581.581,0,0,0,7.1,9.334a.991.991,0,0,0,.376-.54c.074-.282.176-.56.227-.845a3.135,3.135,0,0,1,.56-1.413s0-.02,0-.031H6.05A2.867,2.867,0,0,1,6.237,7.624ZM8.82,6.646a3.118,3.118,0,0,0-.708,1.788c.172-.153.337-.286.485-.43a.886.886,0,0,0,.215-.27,5.411,5.411,0,0,1,.7-1.233,2.566,2.566,0,0,1-.352,0,.371.371,0,0,0-.048,0A.406.406,0,0,0,8.82,6.646ZM1.718,5.5a.233.233,0,0,0-.219.219.224.224,0,0,0,.168.258.717.717,0,0,0,.2.02H14.11c.258,0,.383-.082.383-.254s-.121-.247-.376-.247H1.878C1.824,5.5,1.773,5.5,1.718,5.5Zm5.106-4a4.821,4.821,0,0,0-2.356.657A3.78,3.78,0,0,0,2.622,4.408c-.055.188-.082.383-.121.583H13.472a1.594,1.594,0,0,0-.012-.16A3.267,3.267,0,0,0,12.8,3.261a4.506,4.506,0,0,0-3.338-1.73c-.447-.034-.9-.045-1.347-.045C7.682,1.487,7.252,1.5,6.824,1.5ZM7.986.5a.25.25,0,0,0-.239.262A.243.243,0,0,0,7.994,1a.246.246,0,0,0,.247-.25A.25.25,0,0,0,7.993.5Zm-4.6,3.9a.25.25,0,0,1-.094-.364A3.48,3.48,0,0,1,4.9,2.49,4.774,4.774,0,0,1,6.762,2c.078,0,.157,0,.235,0a.252.252,0,0,1,.243.258A.236.236,0,0,1,7,2.494a4.582,4.582,0,0,0-1.432.258A3.214,3.214,0,0,0,3.725,4.271a.239.239,0,0,1-.34.125Z"/>
</svg>
