<svg xmlns="http://www.w3.org/2000/svg" width="15" height="12.333" viewBox="0 0 15 12.333">
  <path id="Union_7" data-name="Union 7" d="M7.45,12.333a.964.964,0,1,1,.02,0ZM4.43,8.56A.554.554,0,0,1,4.6,8.039a4.041,4.041,0,0,1,3.233-1.2,4.09,4.09,0,0,1,2.51,1.207.581.581,0,0,1,.117.657.589.589,0,0,1-.587.338.625.625,0,0,1-.4-.206A3.168,3.168,0,0,0,8.188,8.1a2.609,2.609,0,0,0-2.125.3,6.387,6.387,0,0,0-.679.506A.611.611,0,0,1,5,9.046.58.58,0,0,1,4.43,8.56Zm7.458-2.085c-.29-.246-.565-.514-.874-.738a5.934,5.934,0,0,0-7.5.36c-.132.117-.257.239-.389.356A.586.586,0,0,1,2.3,6.442a.577.577,0,0,1,.018-.829A7.118,7.118,0,0,1,8.3,3.451a7.191,7.191,0,0,1,4.375,2.162.592.592,0,0,1,.187.433.565.565,0,0,1-.345.521.6.6,0,0,1-.252.059A.568.568,0,0,1,11.888,6.475Zm2.088-2.488a9.277,9.277,0,0,0-2.349-1.8,8.686,8.686,0,0,0-3.039-.951A8.8,8.8,0,0,0,1.281,3.726c-.092.088-.176.184-.268.272a.584.584,0,0,1-.98-.206A.51.51,0,0,0,0,3.73V3.466A1.892,1.892,0,0,1,.532,2.82,9.57,9.57,0,0,1,5.454.21a9.855,9.855,0,0,1,8.838,2.441c.18.161.352.338.521.514a.59.59,0,0,1,.011.852.564.564,0,0,1-.4.17A.623.623,0,0,1,13.976,3.987Z"/>
</svg>
