<svg xmlns="http://www.w3.org/2000/svg" width="15.84" height="15" viewBox="0 0 15.84 15">
  <g id="Restaurant1" transform="translate(-58.101 -67.068)">
    <path id="Union_5" data-name="Union 5" d="M1.893,14.93A1.4,1.4,0,0,1,.852,13.7,1.355,1.355,0,0,1,1.3,12.454c1.125-1.013,2.266-2.018,3.4-3.022a.286.286,0,0,1,.426.012.29.29,0,0,1-.07.434q-1.414,1.253-2.824,2.505c-.17.149-.339.3-.509.451a.91.91,0,1,0,1.29,1.277q2.809-3.163,5.618-6.33c.327-.368.649-.736.976-1.1a.3.3,0,0,1,.409-.1,1.487,1.487,0,0,0,1.716-.351c1.182-1.174,2.357-2.352,3.535-3.531.19-.194.36-.223.492-.087s.107.294-.091.492l-3.51,3.51A2.084,2.084,0,0,1,10.03,7.2a.2.2,0,0,0-.141.012c-.293.322-.583.649-.881.988L10,9.08c1.244,1.108,2.493,2.208,3.733,3.32a1.478,1.478,0,1,1-2.109,2.059Q10.36,13.039,9.1,11.615c-.5-.558-.992-1.12-1.488-1.679a.594.594,0,0,1-.054-.1c-.232.26-.438.488-.641.719Q5.18,12.52,3.444,14.471A1.429,1.429,0,0,1,2.353,15,1.626,1.626,0,0,1,1.893,14.93ZM7.93,9.423c.037.045.07.083.1.116.686.777,1.377,1.55,2.063,2.328q.98,1.11,1.96,2.212a.9.9,0,0,0,.881.327.859.859,0,0,0,.707-.637.884.884,0,0,0-.3-.959q-2.319-2.059-4.635-4.122c-.021-.016-.045-.033-.074-.054C8.4,8.9,8.165,9.155,7.93,9.423ZM6.222,8.365c-.314-.351-.624-.7-.934-1.054a.15.15,0,0,0-.215-.054A2.838,2.838,0,0,1,1.84,6.645a6.408,6.408,0,0,1-1.7-2.762C.083,3.668.045,3.441,0,3.222V2.635C.033,2.49.058,2.345.1,2.2A2.014,2.014,0,0,1,2.038.75,4.368,4.368,0,0,1,4.3,1.374,6.153,6.153,0,0,1,6.1,2.817a2.775,2.775,0,0,1,.4,3.03c-.012.029-.025.058-.041.1.356.314.711.633,1.079.959.364-.327.723-.641,1.079-.963a.145.145,0,0,0,.021-.12,2.1,2.1,0,0,1,.608-2.175c1.166-1.153,2.323-2.319,3.481-3.477a1.381,1.381,0,0,1,.112-.108.289.289,0,0,1,.38.017.275.275,0,0,1,.017.376,1.379,1.379,0,0,1-.107.112q-1.749,1.755-3.5,3.5a1.516,1.516,0,0,0-.372,1.765.314.314,0,0,1-.091.389C8.351,6.947,7.533,7.675,6.714,8.4a.375.375,0,0,1-.238.113A.357.357,0,0,1,6.222,8.365ZM5.548,6.757c.128.149.256.294.389.442.186.207.368.413.562.628.207-.186.4-.36.62-.546-.38-.339-.74-.657-1.1-.98-.236-.207-.248-.277-.1-.554a2.258,2.258,0,0,0-.215-2.526A5.9,5.9,0,0,0,3.824,1.763,3.97,3.97,0,0,0,2.307,1.32,1.5,1.5,0,0,0,.628,2.42a2.429,2.429,0,0,0,.008,1.1A5.038,5.038,0,0,0,1.757,5.7a4.584,4.584,0,0,0,.839.835,2.193,2.193,0,0,0,2.41.124.6.6,0,0,1,.261-.093C5.359,6.568,5.432,6.627,5.548,6.757Zm5.966-1.72a.275.275,0,0,1-.017-.356.871.871,0,0,1,.083-.091c.943-.943,1.885-1.889,2.832-2.828a2.03,2.03,0,0,1,.26-.186c.091.066.2.107.232.182a.418.418,0,0,1,.008.285c-.012.054-.074.1-.12.141Q13.4,3.58,12.006,4.971a.654.654,0,0,1-.128.112.287.287,0,0,1-.158.048A.274.274,0,0,1,11.514,5.037Zm-.79-.781a.281.281,0,0,1,.025-.422c.215-.219.438-.438.653-.657L13.589.989c.041-.045.087-.107.141-.12a.492.492,0,0,1,.289,0c.07.037.112.145.174.232a1.435,1.435,0,0,1-.161.248q-1.426,1.433-2.861,2.865c-.008.008-.012.016-.021.021a.354.354,0,0,1-.235.105A.267.267,0,0,1,10.724,4.256Z" transform="translate(58.101 67.068)"/>
  </g>
</svg>
