<svg xmlns="http://www.w3.org/2000/svg" width="12.576" height="15" viewBox="0 0 12.576 15">
  <path id="Path_213" data-name="Path 213" d="M106.787,65.382h-3.194L104.7,64.02c-.231-.188-.45-.368-.677-.552-.039.047-.074.082-.1.117-.462.564-.924,1.123-1.382,1.691a.254.254,0,0,1-.219.11c-.744,0-1.483,0-2.227,0h-.137a2.9,2.9,0,1,0-1.472,3.143c.023.027.051.055.074.086q1.321,1.615,2.634,3.237a.378.378,0,0,1,.067.227q.006,2.466,0,4.936v.176H99.53v.877h4.364v-.881h-1.746V77c0-1.515.012-3.026-.008-4.54a1.341,1.341,0,0,1,.337-.943c1.413-1.707,2.806-3.429,4.208-5.147.039-.047.094-.106.094-.157C106.791,65.942,106.787,65.668,106.787,65.382Zm-4.885.885a.391.391,0,0,1,.478.438,1.076,1.076,0,0,1-.861.99.393.393,0,0,1-.481-.438A1.094,1.094,0,0,1,101.9,66.267Zm-6.1,1.241a2.024,2.024,0,0,1,1.5-3.558,1.992,1.992,0,0,1,1.722,1.425H96.638c0,.294,0,.571,0,.853,0,.043.055.09.086.129.356.438.716.877,1.072,1.315a1.532,1.532,0,0,1,.1.125A1.945,1.945,0,0,1,95.8,67.507Zm5.906,3.574c-1.307-1.6-2.607-3.194-3.922-4.806h2.665c-.023.047-.047.09-.07.137a1.625,1.625,0,0,0-.121,1.4,1.272,1.272,0,0,0,1.558.732,1.956,1.956,0,0,0,1.433-1.984c-.008-.09-.027-.184-.043-.286h2.431C104.325,67.879,103.025,69.472,101.71,71.081Z" transform="translate(-94.211 -63.063)"/>
</svg>
