<svg xmlns="http://www.w3.org/2000/svg" width="17" height="10.784" viewBox="0 0 17 10.784">
  <g id="Pool" transform="translate(-248.398 -335.445)">
    <path id="Union_4" data-name="Union 4" d="M-5866.608-485.349a6.287,6.287,0,0,0-2.633-.572.38.38,0,0,1-.359-.191v-.2a.425.425,0,0,1,.395-.186,6.459,6.459,0,0,1,2.673.563,6.425,6.425,0,0,0,4.765.244c.5-.16.966-.412,1.472-.55a7.094,7.094,0,0,1,4.947.4,5.552,5.552,0,0,0,2.305.479h.115c.2.013.324.12.324.288a.292.292,0,0,1-.324.284,6.482,6.482,0,0,1-2.771-.572,6.422,6.422,0,0,0-4.61-.275c-.443.133-.855.355-1.3.5a7.423,7.423,0,0,1-2.271.369A6.8,6.8,0,0,1-5866.608-485.349Zm-.076-1.454a6.052,6.052,0,0,0-2.54-.536.373.373,0,0,1-.368-.2v-.168a.36.36,0,0,1,.363-.2,6.46,6.46,0,0,1,2.691.554,6.486,6.486,0,0,0,4.987.182,13.8,13.8,0,0,1,1.64-.567,6.81,6.81,0,0,1,4.344.4,6.142,6.142,0,0,0,2.62.567c.212,0,.346.115.341.288s-.133.275-.346.275a6.535,6.535,0,0,1-2.766-.576,6.4,6.4,0,0,0-5.275-.009,7.241,7.241,0,0,1-2.852.608A7.093,7.093,0,0,1-5866.684-486.8Zm-.031-1.427a6.051,6.051,0,0,0-2.527-.527.413.413,0,0,1-.35-.173v-.2a.4.4,0,0,1,.386-.2,6.447,6.447,0,0,1,2.642.55,6.134,6.134,0,0,0,1.737.519.283.283,0,0,0,.213-.071c.9-.882,1.782-1.773,2.668-2.66a.69.69,0,0,0-.333-1.215q-1.569-.412-3.143-.811a1.279,1.279,0,0,1-.74-2.092,1.191,1.191,0,0,1,1.228-.408c1.117.275,2.226.567,3.333.869a3.75,3.75,0,0,1,1.693,1.033c.076.08.142.164.244.284a2.6,2.6,0,0,1,1.175-1.826,2.535,2.535,0,0,1,1.7-.372,2.546,2.546,0,0,1,2.189,2.23,2.569,2.569,0,0,1-1.915,2.775,1.029,1.029,0,0,0,.04.1c.319.536.634,1.073.958,1.609a.385.385,0,0,0,.168.146,5.636,5.636,0,0,0,2.27.479c.053,0,.111,0,.164,0a.3.3,0,0,1,.315.293.287.287,0,0,1-.315.27,5.164,5.164,0,0,1-1.689-.2c-.505-.155-1-.364-1.494-.541a6.457,6.457,0,0,0-4.863.142,7.2,7.2,0,0,1-2.875.621A7.165,7.165,0,0,1-5866.715-488.23Zm.789-6.188a.713.713,0,0,0,.585.842c.9.235,1.8.465,2.708.7.173.044.35.089.528.137a1.252,1.252,0,0,1,.576,2.123c-.75.762-1.507,1.512-2.261,2.265-.04.04-.08.084-.151.16h.177a6.058,6.058,0,0,0,2.6-.563,6.957,6.957,0,0,1,4.154-.452c.217.035.434.093.683.155-.279-.47-.532-.909-.8-1.343-.022-.035-.1-.053-.155-.058a2.522,2.522,0,0,1-2.239-1.68,1.833,1.833,0,0,0-.536-.824c-.1-.093-.2-.2-.292-.293a3.162,3.162,0,0,0-1.17-.767c-.346-.12-.7-.208-1.051-.3q-1.217-.319-2.434-.634a.927.927,0,0,0-.238-.032A.681.681,0,0,0-5865.926-494.418Zm7.913,3.192a1.965,1.965,0,0,0,2.562-.762q-1.748-.878-3.506-1.755A1.966,1.966,0,0,0-5858.013-491.227Zm-.652-3.005,3.431,1.715a1.926,1.926,0,0,0-.979-2.247,1.951,1.951,0,0,0-.906-.222A1.907,1.907,0,0,0-5858.665-494.232Zm-1.751,4.278a1.871,1.871,0,0,1-.341-.332.262.262,0,0,1,0-.337.232.232,0,0,1,.319-.084,3.392,3.392,0,0,1,.439.434c.026.018.026.058.044.137-.044.058-.093.168-.173.2a.292.292,0,0,1-.117.022A.33.33,0,0,1-5860.416-489.954Zm-8.338-.217a.285.285,0,0,1-.271-.279.282.282,0,0,1,.284-.279.269.269,0,0,1,.279.284.286.286,0,0,1-.285.275Zm.585-1.41a.279.279,0,0,1,.271-.293.289.289,0,0,1,.288.284.282.282,0,0,1-.284.279A.27.27,0,0,1-5868.169-491.581Zm-.16-1.427a.984.984,0,0,1-.979-1,.984.984,0,0,1,1-.98.984.984,0,0,1,.979,1,.981.981,0,0,1-.989.98Zm-.408-1a.412.412,0,0,0,.417.434.418.418,0,0,0,.426-.417.417.417,0,0,0-.412-.426A.415.415,0,0,0-5868.736-494.01Z" transform="translate(6117.999 831)"/>
  </g>
</svg>
