<svg xmlns="http://www.w3.org/2000/svg" width="15.01" height="15" viewBox="0 0 15.01 15">
  <g id="Coffee_shop" data-name="Coffee shop" transform="translate(-48 -38.801)">
    <path id="Union_2" data-name="Union 2" d="M1.971,15A1.927,1.927,0,0,1,.051,13.479C.037,13.42.018,13.358,0,13.3v-.323a.41.41,0,0,1,.415-.209c.477.011.958,0,1.435,0h.334c-.048-.051-.092-.106-.139-.161-.1-.106-.187-.217-.279-.323-.048-.051-.1-.106-.143-.158a6.034,6.034,0,0,1-1.512-3c-.048-.25-.077-.5-.114-.749V5.362a.367.367,0,0,1,.385-.228c.69,0,1.376,0,2.066,0a.689.689,0,0,1,.172.018.283.283,0,0,1,.217.279.294.294,0,0,1-.239.279,1.413,1.413,0,0,1-.176.007H.595c0,.048-.007.081-.007.114,0,.745-.022,1.486.007,2.228a5.5,5.5,0,0,0,2.672,4.661.339.339,0,0,0,.176.051q2.719.006,5.435,0a.343.343,0,0,0,.176-.055,5.393,5.393,0,0,0,2.635-4.268c.073-.9.011-1.806.011-2.73H5.835a1.262,1.262,0,0,1-.205-.011A.293.293,0,0,1,5.4,5.442.287.287,0,0,1,5.6,5.156a.739.739,0,0,1,.2-.022h6.1c.312,0,.411.1.411.411v.5h2.261c.352,0,.437.084.437.429,0,.65,0,1.3,0,1.945a2.8,2.8,0,0,1-2.264,2.767,7.577,7.577,0,0,1-1.226.062.266.266,0,0,0-.25.132,5.871,5.871,0,0,1-1.138,1.273c-.033.026-.062.059-.121.114H12.62c.3,0,.4.114.389.415A1.94,1.94,0,0,1,11.2,14.995c-.048,0-.1,0-.147,0L5,15Zm0-.583q4.541.006,9.079,0a1.59,1.59,0,0,0,.646-.154,1.245,1.245,0,0,0,.694-.892H.639A1.328,1.328,0,0,0,1.974,14.415Zm10.081-3.743a2.561,2.561,0,0,0,.411-.018,2.232,2.232,0,0,0,1.956-2.279c0-.525,0-1.053,0-1.578v-.15h-2.1v.576h.165c.33,0,.664,0,.995,0,.25,0,.356.11.356.36,0,.3.007.594,0,.892A1.593,1.593,0,0,1,13.3,9.652a1.667,1.667,0,0,1-1.222.437c-.055,0-.139.022-.158.059-.084.165-.147.338-.224.525h.36Zm.1-1.174a1.029,1.029,0,0,0,.939-.517,2.2,2.2,0,0,0,.154-1.163h-.9C12.286,8.382,12.224,8.936,12.154,9.5ZM8.349,12.132a.287.287,0,0,1-.286-.29.3.3,0,0,1,.3-.294.292.292,0,0,1-.008.584Zm.782-.807a.3.3,0,0,1,.011-.455c.04-.048.084-.1.128-.139a4.126,4.126,0,0,0,.98-2,6.6,6.6,0,0,0,.073-.712c.018-.213.128-.349.3-.341s.286.147.283.356c0,.055,0,.114,0,.172a4.824,4.824,0,0,1-1.328,3.05.377.377,0,0,1-.268.139A.268.268,0,0,1,9.13,11.325ZM3.908,5.431a.3.3,0,0,1,.29-.29.288.288,0,0,1,.294.286.293.293,0,0,1-.29.29A.3.3,0,0,1,3.908,5.431ZM4.261,4.5a.285.285,0,0,1-.081-.367,2,2,0,0,1,.143-.2,1,1,0,0,0-.007-1.339,1.594,1.594,0,0,1-.4-.892A1.342,1.342,0,0,1,4.2.774a.294.294,0,0,1,.4-.066.276.276,0,0,1,.081.385.781.781,0,0,0-.165.631,1.324,1.324,0,0,0,.22.437,1.772,1.772,0,0,1,.429.95,1.838,1.838,0,0,1-.525,1.365.269.269,0,0,1-.2.085A.29.29,0,0,1,4.261,4.5ZM7.5,4.5a.281.281,0,0,1-.077-.367,1.75,1.75,0,0,1,.154-.213,1.073,1.073,0,0,0,.242-.65,1.069,1.069,0,0,0-.279-.7,1.506,1.506,0,0,1-.371-.749A1.319,1.319,0,0,1,7.431.8.293.293,0,0,1,7.842.716a.282.282,0,0,1,.073.4.771.771,0,0,0-.139.7,1.562,1.562,0,0,0,.239.4,1.78,1.78,0,0,1,.374.829,1.569,1.569,0,0,1-.341,1.229,2.231,2.231,0,0,1-.169.2.291.291,0,0,1-.2.08A.277.277,0,0,1,7.5,4.5ZM5.883,3.846A.285.285,0,0,1,5.8,3.479a1.381,1.381,0,0,1,.136-.191A1,1,0,0,0,5.93,1.927,1.44,1.44,0,0,1,5.545.8,1.018,1.018,0,0,1,5.982,0h.147c.246.15.275.283.121.528a.754.754,0,0,0,.066.936,1.929,1.929,0,0,1,.422.774,1.577,1.577,0,0,1-.312,1.376,2.242,2.242,0,0,1-.169.2.291.291,0,0,1-.374.029Z" transform="translate(48 38.801)"/>
  </g>
</svg>
