<svg xmlns="http://www.w3.org/2000/svg" width="16.025" height="16.02" viewBox="0 0 16.025 16.02">
  <g id="icon-star" transform="translate(0.513 0.5)">
    <path id="Star" d="M16.282,11.675l3.242.487a1.183,1.183,0,0,1,.623,1.993L17.8,16.543a1.2,1.2,0,0,0-.321,1.035l.557,3.367a1.131,1.131,0,0,1-1.624,1.234l-2.9-1.586a1.079,1.079,0,0,0-1.043,0l-2.9,1.593a1.131,1.131,0,0,1-1.628-1.23l.55-3.368a1.2,1.2,0,0,0-.324-1.035L5.826,14.173a1.183,1.183,0,0,1,.619-1.994l3.241-.495a1.126,1.126,0,0,0,.843-.64l1.446-3.066a1.1,1.1,0,0,1,2.01,0l1.453,3.062a1.125,1.125,0,0,0,.844.638Z" transform="translate(-5.485 -7.325)" stroke="#000" stroke-width="1"/>
  </g>
</svg>
