<svg xmlns="http://www.w3.org/2000/svg" xmlns:xlink="http://www.w3.org/1999/xlink" width="60" height="53" viewBox="0 0 60 53">
  <defs>
    <filter id="Rectangle_2508" x="0" y="0" width="60" height="53" filterUnits="userSpaceOnUse">
      <feOffset dy="3" input="SourceAlpha"/>
      <feGaussianBlur stdDeviation="3" result="blur"/>
      <feFlood flood-opacity="0.161"/>
      <feComposite operator="in" in2="blur"/>
      <feComposite in="SourceGraphic"/>
    </filter>
  </defs>
  <g id="Group_39875" data-name="Group 39875" transform="translate(-184 -5)">
    <g transform="matrix(1, 0, 0, 1, 184, 5)" filter="url(#Rectangle_2508)">
      <rect id="Rectangle_2508-2" data-name="Rectangle 2508" width="42" height="35" rx="16" transform="translate(9 6)" fill="#ff7600"/>
    </g>
    <g id="Group_8" data-name="Group 8" transform="translate(200 29.643) rotate(-90)">
      <path id="Path_34" data-name="Path 34" d="M428.62,260.358a1.652,1.652,0,0,0,.03-1.6c-.6-.943-1.189-1.9-1.838-2.812-.626-.88-1.331-1.7-1.988-2.563-.379-.5-.536-.491-.919.008q-1.094,1.425-2.223,2.821c-.345.428-.377.548-.045.966.648.818,1.329,1.61,1.956,2.443.741.986,1.443,2,2.155,3.009.353.5.692,1.012,1.072,1.57.139-.153.22-.209.254-.285C427.6,262.734,428.13,261.555,428.62,260.358Z" transform="translate(-421.405 -253.015)" fill="#fff"/>
      <path id="Path_35" data-name="Path 35" d="M424.955,318.982c.289-.349.609-.676.868-1.045q1.664-2.376,3.29-4.778a1.121,1.121,0,0,0,.276-1.062c-.469-1.211-.928-2.426-1.417-3.629-.165-.407-.407-.783-.678-1.3-.341.487-.6.866-.87,1.239-1.1,1.524-2.192,3.052-3.306,4.566-.431.586-.918,1.131-1.369,1.7-.347.44-.328.643.03,1.078.409.5.807,1.008,1.207,1.514.442.559.88,1.123,1.323,1.681C424.509,319.2,424.725,319.26,424.955,318.982Z" transform="translate(-421.471 -290.871)" fill="#fff"/>
      <path id="Path_36" data-name="Path 36" d="M447.559,293.461l.113.008c.257-.8.525-1.591.766-2.392.159-.527.294-1.062.41-1.6a3.581,3.581,0,0,0,.174-1.247,17.715,17.715,0,0,0-.6-2.456c-.267-.863-.611-1.7-.921-2.552h-.119c-.089.281-.17.566-.27.844-.4,1.109-.783,2.224-1.214,3.32a1.911,1.911,0,0,0-.042,1.559c.452,1.048.867,2.113,1.277,3.178C447.3,292.557,447.419,293.014,447.559,293.461Z" transform="translate(-438.393 -274.128)" fill="#fff"/>
      <path id="Path_37" data-name="Path 37" d="M392.55,282.064c-.416-.416.107-1.04,1.558-2.646,1.339-1.483,4.439-4.988,4.919-5.532a1.018,1.018,0,0,0,.069-.075,55.756,55.756,0,0,1,6.071,7.628c.608.71-4.876,7.319-5.617,8.055l-.043.043C398.988,290.007,393.382,283.152,392.55,282.064Z" transform="translate(-401.139 -267.551)" fill="#fff"/>
    </g>
  </g>
</svg>
