<svg xmlns="http://www.w3.org/2000/svg" width="22.26" height="24" viewBox="0 0 22.26 24">
  <path id="Path_38208" data-name="Path 38208" d="M18.767,8.736V8.412a4.216,4.216,0,1,0-8.432,0v.324ZM8.388,14.9V10.682H7.857a1.635,1.635,0,0,0-1.622,1.492L5.379,22.553A1.619,1.619,0,0,0,6.987,24.3H22.114a1.619,1.619,0,0,0,1.609-1.751l-.856-10.378a1.635,1.635,0,0,0-1.622-1.492h-.532V14.9a.973.973,0,1,1-1.946,0V10.682H10.334V14.9a.973.973,0,1,1-1.946,0Zm0-6.486a6.162,6.162,0,1,1,12.324,0v.324h.532A3.572,3.572,0,0,1,24.8,12.006l.869,10.378a3.573,3.573,0,0,1-3.555,3.866H6.987a3.573,3.573,0,0,1-3.555-3.866L4.3,12.006A3.572,3.572,0,0,1,7.857,8.736h.532Z" transform="translate(-3.421 -2.25)"/>
</svg>
