<svg xmlns="http://www.w3.org/2000/svg" width="21.571" height="24" viewBox="0 0 21.571 24">
  <g id="_28" data-name="28" transform="translate(-3.415 -2)">
    <path id="Path_38207" data-name="Path 38207" d="M24.544,19.705,23.079,17.6a1.714,1.714,0,0,1-.309-.977V10.57a8.57,8.57,0,1,0-17.14,0v6.05a1.714,1.714,0,0,1-.309.977L3.856,19.705a1.714,1.714,0,0,0,1.268,2.862H10a4.285,4.285,0,0,0,8.4,0h4.876a1.714,1.714,0,0,0,1.268-2.862ZM14.2,24.282a2.571,2.571,0,0,1-2.417-1.714h4.833A2.571,2.571,0,0,1,14.2,24.282ZM5.125,20.854a.694.694,0,0,0,.1-.12l1.5-2.16a3.428,3.428,0,0,0,.617-1.954V10.57a6.856,6.856,0,1,1,13.712,0v6.05a3.428,3.428,0,0,0,.617,1.954l1.5,2.16a.694.694,0,0,0,.1.12Z"/>
  </g>
</svg>
