<svg id="icon_Cart" data-name="icon/Cart" xmlns="http://www.w3.org/2000/svg" width="25" height="23.333" viewBox="0 0 25 23.333">
  <g id="icon-Cart">
    <path id="Path_1" data-name="Path 1" d="M26.952,10.1a2.541,2.541,0,0,0-1.974-.966H8.949l-.5-1.931A2.526,2.526,0,0,0,6,5.3H3.317a.81.81,0,1,0,0,1.619H6a.868.868,0,0,1,.842.653l3.211,12.686A2.526,2.526,0,0,0,12.5,22.164H23a2.5,2.5,0,0,0,2.448-1.906l1.974-8.04a2.379,2.379,0,0,0-.474-2.116Zm-1.131,1.749-1.974,8.04a.868.868,0,0,1-.842.653H12.5a.868.868,0,0,1-.842-.653L9.37,10.782H24.979a.877.877,0,0,1,.685.34.816.816,0,0,1,.157.73Z" transform="translate(-2.5 -5.301)" fill="#404041"/>
    <path id="Path_2" data-name="Path 2" d="M34.941,73.9a2.714,2.714,0,1,0,2.737,2.715A2.74,2.74,0,0,0,34.941,73.9Zm0,3.785a1.071,1.071,0,1,1,1.08-1.071A1.1,1.1,0,0,1,34.941,77.682Z" transform="translate(-24.386 -55.992)" fill="#404041"/>
    <path id="Path_3" data-name="Path 3" d="M69.339,73.9a2.714,2.714,0,1,0,2.737,2.714A2.74,2.74,0,0,0,69.339,73.9Zm0,3.785a1.071,1.071,0,1,1,1.08-1.071A1.1,1.1,0,0,1,69.339,77.683Z" transform="translate(-49.73 -55.993)" fill="#404041"/>
  </g>
</svg>
