<svg xmlns="http://www.w3.org/2000/svg" width="40" height="39.999" viewBox="0 0 40 39.999">
  <g id="Hotel_2_" data-name="Hotel (2)" transform="translate(0 -0.01)">
    <path id="Path_78036" data-name="Path 78036" d="M211,438.56v2.681h2.344v-6A3.522,3.522,0,0,0,211,438.56Z" transform="translate(-194.512 -401.233)" fill="#007dbd"/>
    <path id="Path_78037" data-name="Path 78037" d="M394,229.9h9.219V205.99H394Zm3.438-20.316h2.344v3.125h-2.344Zm0,5.235h2.344v3.125h-2.344ZM399.781,220v3.125h-2.344V220Z" transform="translate(-363.219 -189.888)" fill="#007dbd"/>
    <path id="Path_78038" data-name="Path 78038" d="M271,435.246v6h2.344V438.56A3.522,3.522,0,0,0,271,435.246Z" transform="translate(-249.828 -401.233)" fill="#007dbd"/>
    <path id="Path_78039" data-name="Path 78039" d="M394,115.987h9.219v4.688H394Z" transform="translate(-363.219 -106.916)" fill="#007dbd"/>
    <path id="Path_78040" data-name="Path 78040" d="M168,.01h13.75V3.916H168Z" transform="translate(-154.878 0)" fill="#007dbd"/>
    <path id="Path_78041" data-name="Path 78041" d="M0,115.987H9.219v4.688H0Z" transform="translate(0 -106.916)" fill="#007dbd"/>
    <path id="Path_78042" data-name="Path 78042" d="M0,205.991V229.9H9.219V205.991Zm5.781,17.138H3.437V220H5.781Zm0-5.188H3.437v-3.125H5.781Zm0-5.235H3.437v-3.125H5.781Z" transform="translate(0 -189.889)" fill="#007dbd"/>
    <path id="Path_78043" data-name="Path 78043" d="M148,80.013v33.748h2.578V111.08a5.86,5.86,0,1,1,11.719,0v2.681h2.578V80.013Zm4.922,22.628h-2.344V99.516h2.344Zm0-5.235h-2.344V94.281h2.344Zm0-5.188h-2.344V89.093h2.344Zm0-5.235h-2.344V83.859h2.344Zm4.688,15.657h-2.344V99.516h2.344Zm0-5.235h-2.344V94.281h2.344Zm0-5.188h-2.344V89.093h2.344Zm0-5.235h-2.344V83.859h2.344Zm4.688,15.657h-2.344V99.516H162.3Zm0-5.235h-2.344V94.281H162.3Zm0-5.188h-2.344V89.093H162.3Zm-2.344-5.235V83.859H162.3v3.125Z" transform="translate(-136.438 -73.753)" fill="#007dbd"/>
  </g>
</svg>
