<svg xmlns="http://www.w3.org/2000/svg" width="36.032" height="40" viewBox="0 0 36.032 40">
  <g id="Shopping" transform="translate(-4.981 -2.011)">
    <path id="Path_78069" data-name="Path 78069" d="M16.31,23.943a.668.668,0,0,1,.663-.592H31.637l-.685-9.378a.666.666,0,0,0-.665-.618h-4V9.319a7.308,7.308,0,1,0-14.617,0v4.035H7.655a.666.666,0,0,0-.665.618l-2,27.316A.6.6,0,0,0,5.658,42H14.28Zm10.645-5.284a1.333,1.333,0,1,1-1.333-1.332,1.333,1.333,0,0,1,1.333,1.332ZM13,9.319a5.975,5.975,0,1,1,11.95,0v4.035H13ZM12.318,19.99a1.332,1.332,0,1,1,1.333-1.332,1.332,1.332,0,0,1-1.333,1.332Z" fill="#007dbd"/>
    <circle id="Ellipse_184" data-name="Ellipse 184" cx="0.666" cy="0.666" r="0.666" transform="translate(20.97 28.68)" fill="#007dbd"/>
    <circle id="Ellipse_185" data-name="Ellipse 185" cx="0.666" cy="0.666" r="0.666" transform="translate(34.419 28.68)" fill="#007dbd"/>
    <path id="Path_78070" data-name="Path 78070" d="M46.314,52.6l-1.8-15.988a.668.668,0,0,0-.663-.592H23.5a.679.679,0,0,0-.675.6L20.942,53.339H45.651a.6.6,0,0,0,.663-.741Zm-5.365-10a7.309,7.309,0,0,1-14.592-.017,1.992,1.992,0,1,1,1.331-.042,5.977,5.977,0,0,0,11.932-.019,2.011,2.011,0,1,1,1.33.077Z" transform="translate(-5.32 -11.335)" fill="#007dbd"/>
  </g>
</svg>
