<svg xmlns="http://www.w3.org/2000/svg" width="45" height="43.594" viewBox="0 0 45 43.594">
  <g id="_011-voucher-4" data-name="011-voucher-4" transform="translate(0 -0.999)">
    <path id="Path_78119" data-name="Path 78119" d="M39.88,8.734A4.223,4.223,0,0,1,44.1,12.953V18.02l2.5.669a4.225,4.225,0,0,1,.79.3l-4.261-15.9A2.812,2.812,0,0,0,39.68,1.1l-28.5,7.638Z" transform="translate(-3.318 0)" fill="#007dbd"/>
    <path id="Path_78120" data-name="Path 78120" d="M46.231,27.849,44.1,27.277V40.441A4.223,4.223,0,0,1,39.88,44.66h-28.7L39.681,52.3a2.812,2.812,0,0,0,3.445-1.988l5.1-19.016a2.812,2.812,0,0,0-1.99-3.445Z" transform="translate(-3.318 -7.801)" fill="#007dbd"/>
    <path id="Path_78121" data-name="Path 78121" d="M22.281,22.055A1.055,1.055,0,0,0,21.227,21,2.23,2.23,0,0,0,19,23.11h2.224a1.055,1.055,0,0,0,1.057-1.055Z" transform="translate(-5.641 -5.938)" fill="#007dbd"/>
    <path id="Path_78122" data-name="Path 78122" d="M21,31h4.219v8.437H21Z" transform="translate(-6.235 -8.907)" fill="#007dbd"/>
    <path id="Path_78123" data-name="Path 78123" d="M21,26h5.625v2.109H21Z" transform="translate(-6.235 -7.422)" fill="#007dbd"/>
    <path id="Path_78124" data-name="Path 78124" d="M9,31h4.219v8.437H9Z" transform="translate(-2.672 -8.907)" fill="#007dbd"/>
    <path id="Path_78125" data-name="Path 78125" d="M7,26h5.625v2.109H7Z" transform="translate(-2.078 -7.422)" fill="#007dbd"/>
    <path id="Path_78126" data-name="Path 78126" d="M13.388,21a1.055,1.055,0,1,0,0,2.109h2.227A2.23,2.23,0,0,0,13.388,21Z" transform="translate(-3.662 -5.938)" fill="#007dbd"/>
    <path id="Path_78127" data-name="Path 78127" d="M17,26h1.406V37.953H17Z" transform="translate(-5.047 -7.422)" fill="#007dbd"/>
    <path id="Path_78128" data-name="Path 78128" d="M36.562,14H2.812A2.812,2.812,0,0,0,0,16.812V36.5a2.812,2.812,0,0,0,2.812,2.812H36.562A2.812,2.812,0,0,0,39.374,36.5V16.812A2.812,2.812,0,0,0,36.562,14ZM21.8,25.25a.7.7,0,0,1-.7.7h-.7v9.14a.7.7,0,0,1-.7.7H5.625a.7.7,0,0,1-.7-.7v-9.14h-.7a.7.7,0,0,1-.7-.7V21.734a.7.7,0,0,1,.7-.7H7.5a2.461,2.461,0,0,1,2.223-3.516A3.631,3.631,0,0,1,12.656,19a3.631,3.631,0,0,1,2.93-1.487,2.461,2.461,0,0,1,2.223,3.516h3.285a.7.7,0,0,1,.7.7Zm13.359,9.14H24.609a.7.7,0,1,1,0-1.406H35.156a.7.7,0,0,1,0,1.406Zm0-3.516H24.609a.7.7,0,1,1,0-1.406H35.156a.7.7,0,0,1,0,1.406Zm0-3.516H24.609a.7.7,0,0,1,0-1.406H35.156a.7.7,0,0,1,0,1.406Zm0-3.516H24.609a.7.7,0,0,1,0-1.406H35.156a.7.7,0,0,1,0,1.406Zm0-3.516H24.609a.7.7,0,1,1,0-1.406H35.156a.7.7,0,0,1,0,1.406Z" transform="translate(0 -3.86)" fill="#007dbd"/>
  </g>
</svg>
